<svg xmlns="http://www.w3.org/2000/svg" fill="none" viewBox="0 0 80 80" class="steth_smallLogo__MF1qa" data-testid="steth-section__stethIconMobile"><g fill="#00A3FF" clip-path="url(#i270)"><g filter="url(#i269)" opacity="0.7"><path d="m53.646 35.868.389.597c4.39 6.735 3.41 15.555-2.357 21.206-3.393 3.324-7.84 4.987-12.286 4.987z" opacity="0.6"></path><path d="m39.39 44.01 14.254-8.142-14.254 26.79z" opacity="0.2"></path><path d="m25.122 35.868-.39.597c-4.39 6.735-3.409 15.555 2.358 21.206 3.393 3.324 7.84 4.987 12.286 4.987z"></path><path d="m39.372 44.01-14.254-8.142 14.254 26.79z" opacity="0.6"></path><path d="M39.395 25.821v14.043l12.279-7.017z" opacity="0.2"></path><path d="m39.392 25.821-12.288 7.026 12.288 7.017z" opacity="0.6"></path><path d="m39.392 14.011-12.288 18.84 12.288-7.045z"></path><path d="m39.395 25.804 12.288 7.046L39.395 14z" opacity="0.6"></path></g><path d="m54.767 35.471.403.614c4.546 6.92 3.53 15.984-2.44 21.79C49.215 61.291 44.611 63 40.007 63z" opacity="0.6"></path><path d="m40.006 43.838 14.76-8.367L40.006 63z" opacity="0.2"></path><path d="m25.233 35.471-.403.614c-4.546 6.92-3.53 15.984 2.44 21.79C30.785 61.291 35.389 63 39.993 63z"></path><path d="m39.988 43.838-14.76-8.367L39.989 63z" opacity="0.6"></path><path d="M40.012 25.147v14.43l12.713-7.21z" opacity="0.2"></path><path d="m40.008 25.147-12.723 7.22 12.723 7.21z" opacity="0.6"></path><path d="m40.008 13.012-12.723 19.36 12.723-7.24z"></path><path d="m40.012 25.13 12.723 7.24L40.012 13z" opacity="0.6"></path></g><defs><clipPath id="i270"><rect width="80" height="80" fill="#fff" rx="40"></rect></clipPath><filter id="i269" width="70.768" height="84.658" x="4" y="-4" color-interpolation-filters="sRGB" filterUnits="userSpaceOnUse"><feFlood flood-opacity="0" result="BackgroundImageFix"></feFlood><feBlend in="SourceGraphic" in2="BackgroundImageFix" result="shape"></feBlend><feGaussianBlur result="effect1_foregroundBlur_40_3677" stdDeviation="9"></feGaussianBlur></filter></defs></svg>